<svg xmlns="http://www.w3.org/2000/svg" xmlns:xlink="http://www.w3.org/1999/xlink" width="500" zoomAndPan="magnify" viewBox="0 0 375 374.999991" height="500" preserveAspectRatio="xMidYMid meet" version="1.0"><defs><g/></defs><path stroke-linecap="butt" transform="matrix(1.08885, 0, 0, 1.08885, 21.884212, 102.555492)" fill="none" stroke-linejoin="miter" d="M 91.530196 66.421828 L 138.781162 66.421828 L 138.781162 200.999725 L 91.530196 200.999725 Z M 91.530196 66.421828 " stroke="#fff9f9" stroke-width="14.4" stroke-opacity="1" stroke-miterlimit="4"/><g fill="#ec4899" fill-opacity="1"><g transform="translate(119.455389, 321.414362)"><g><path d="M 2.09375 -146.546875 L 53.515625 -146.546875 L 53.515625 0 L 2.09375 0 Z M 2.09375 -146.546875 "/></g></g></g><path stroke-linecap="butt" transform="matrix(-1.08885, 0, 0, -1.08885, 367.063164, 422.673044)" fill="none" stroke-linejoin="miter" d="M 115.249055 90.04733 C 122.904781 90.04733 130.061844 91.485918 136.720244 94.359506 C 143.375057 97.233093 149.265733 101.204456 154.39227 106.266419 C 159.515221 111.296094 163.515284 117.17242 166.388871 123.891808 C 169.266047 130.607608 170.704634 137.811309 170.704634 145.499322 L 170.704634 201.001538 L 124.626781 201.001538 L 124.626781 145.499322 C 124.626781 142.937847 123.704793 140.702834 121.860818 138.797871 C 120.016843 136.860621 117.814118 135.891996 115.249055 135.891996 C 112.562017 135.891996 110.280367 136.860621 108.407692 138.797871 C 106.563717 140.702834 105.641729 142.937847 105.641729 145.499322 C 105.641729 148.060797 106.563717 150.313747 108.407692 152.250997 C 110.280367 154.15596 112.562017 155.110235 115.249055 155.110235 L 121.954093 155.110235 L 121.954093 201.001538 L 115.249055 201.001538 C 107.561042 201.001538 100.360929 199.562951 93.641541 196.685775 C 86.922153 193.812188 81.031478 189.812125 75.969515 184.689175 C 70.907552 179.562637 66.936189 173.671961 64.062602 167.017148 C 61.189014 160.358748 59.750426 153.187335 59.750426 145.499322 C 59.750426 137.811309 61.189014 130.607608 64.062602 123.891808 C 66.936189 117.17242 70.907552 111.296094 75.969515 106.266419 C 81.031478 101.204456 86.922153 97.233093 93.641541 94.359506 C 100.360929 91.485918 107.561042 90.04733 115.249055 90.04733 Z M 115.249055 90.04733 " stroke="#fff9f9" stroke-width="14.4" stroke-opacity="1" stroke-miterlimit="4"/><g fill="#ec4899" fill-opacity="1"><g transform="translate(304.097004, 203.814175)"><g><path d="M -62.515625 120.84375 C -70.867188 120.84375 -78.671875 119.273438 -85.921875 116.140625 C -93.171875 113.003906 -99.582031 108.679688 -105.15625 103.171875 C -110.726562 97.671875 -115.082031 91.257812 -118.21875 83.9375 C -121.351562 76.625 -122.921875 68.785156 -122.921875 60.421875 L -122.921875 0 L -72.75 0 L -72.75 60.421875 C -72.75 63.203125 -71.738281 65.640625 -69.71875 67.734375 C -67.695312 69.828125 -65.296875 70.875 -62.515625 70.875 C -59.585938 70.875 -57.113281 69.828125 -55.09375 67.734375 C -53.070312 65.640625 -52.0625 63.203125 -52.0625 60.421875 C -52.0625 57.628906 -53.070312 55.1875 -55.09375 53.09375 C -57.113281 51.007812 -59.585938 49.96875 -62.515625 49.96875 L -69.828125 49.96875 L -69.828125 0 L -62.515625 0 C -54.148438 0 -46.304688 1.566406 -38.984375 4.703125 C -31.671875 7.835938 -25.257812 12.191406 -19.75 17.765625 C -14.25 23.347656 -9.929688 29.757812 -6.796875 37 C -3.660156 44.25 -2.09375 52.054688 -2.09375 60.421875 C -2.09375 68.785156 -3.660156 76.625 -6.796875 83.9375 C -9.929688 91.257812 -14.25 97.671875 -19.75 103.171875 C -25.257812 108.679688 -31.671875 113.003906 -38.984375 116.140625 C -46.304688 119.273438 -54.148438 120.84375 -62.515625 120.84375 Z M -62.515625 120.84375 "/></g></g></g><path stroke-linecap="butt" transform="matrix(1.08885, 0, 0, 1.08885, 4.652266, -22.444488)" fill="none" stroke-linejoin="miter" d="M 125.40473 200.999707 C 115.564217 200.999707 106.828654 199.18802 99.201628 195.561057 C 91.57819 191.905394 85.626527 186.438044 81.343052 179.155418 C 77.063164 171.844093 74.921426 162.670855 74.921426 151.639291 L 74.921426 66.42181 L 122.125755 66.42181 L 122.125755 93.281425 L 154.98367 93.281425 L 154.98367 137.813065 L 122.125755 137.813065 L 122.125755 153.748741 C 122.125755 155.438454 122.968817 156.281517 124.654942 156.281517 L 154.98367 156.281517 L 154.98367 200.999707 Z M 125.40473 200.999707 " stroke="#fff9f9" stroke-width="14.4" stroke-opacity="1" stroke-miterlimit="4"/><g fill="#ec4899" fill-opacity="1"><g transform="translate(84.342483, 196.414381)"><g><path d="M 56.859375 0 C 46.128906 0 36.617188 -1.984375 28.328125 -5.953125 C 20.035156 -9.929688 13.550781 -15.890625 8.875 -23.828125 C 4.207031 -31.773438 1.875 -41.742188 1.875 -53.734375 L 1.875 -146.546875 L 53.3125 -146.546875 L 53.3125 -117.28125 L 89.0625 -117.28125 L 89.0625 -68.78125 L 53.3125 -68.78125 L 53.3125 -51.421875 C 53.3125 -49.617188 54.21875 -48.71875 56.03125 -48.71875 L 89.0625 -48.71875 L 89.0625 0 Z M 56.859375 0 "/></g></g></g><path stroke-linecap="butt" transform="matrix(1.08885, 0, 0, 1.08885, 98.65141, -24.701053)" fill="none" stroke-linejoin="miter" d="M 115.249303 90.047941 C 122.905029 90.047941 130.062092 91.482941 136.720492 94.360116 C 143.375305 97.233704 149.265981 101.201479 154.388931 106.267029 C 159.515469 111.296705 163.515532 117.17303 166.389119 123.892418 C 169.266295 130.608218 170.704882 137.811919 170.704882 145.499932 L 170.704882 200.998561 L 124.623441 200.998561 L 124.623441 145.499932 C 124.623441 142.938457 123.701454 140.703444 121.861066 138.798482 C 120.017091 136.857644 117.810778 135.889019 115.249303 135.889019 C 112.562266 135.889019 110.280615 136.857644 108.40794 138.798482 C 106.563965 140.703444 105.641978 142.938457 105.641978 145.499932 C 105.641978 148.061407 106.563965 150.31077 108.40794 152.251608 C 110.280615 154.15657 112.562266 155.110845 115.249303 155.110845 L 121.954341 155.110845 L 121.954341 200.998561 L 115.249303 200.998561 C 107.56129 200.998561 100.35759 199.563561 93.641789 196.686386 C 86.922401 193.812798 81.031726 189.812735 75.969763 184.686197 C 70.9078 179.563247 66.936437 173.672572 64.06285 167.014171 C 61.189262 160.359358 59.750674 153.187945 59.750674 145.499932 C 59.750674 137.811919 61.189262 130.608218 64.06285 123.892418 C 66.936437 117.17303 70.9078 111.296705 75.969763 106.267029 C 81.031726 101.201479 86.922401 97.233704 93.641789 94.360116 C 100.35759 91.482941 107.56129 90.047941 115.249303 90.047941 Z M 115.249303 90.047941 " stroke="#fff9f9" stroke-width="14.4" stroke-opacity="1" stroke-miterlimit="4"/><g fill="#ec4899" fill-opacity="1"><g transform="translate(161.61757, 194.157817)"><g><path d="M 62.515625 -120.84375 C 70.867188 -120.84375 78.671875 -119.273438 85.921875 -116.140625 C 93.171875 -113.003906 99.582031 -108.679688 105.15625 -103.171875 C 110.726562 -97.671875 115.082031 -91.257812 118.21875 -83.9375 C 121.351562 -76.625 122.921875 -68.785156 122.921875 -60.421875 L 122.921875 0 L 72.75 0 L 72.75 -60.421875 C 72.75 -63.203125 71.738281 -65.640625 69.71875 -67.734375 C 67.695312 -69.828125 65.296875 -70.875 62.515625 -70.875 C 59.585938 -70.875 57.113281 -69.828125 55.09375 -67.734375 C 53.070312 -65.640625 52.0625 -63.203125 52.0625 -60.421875 C 52.0625 -57.628906 53.070312 -55.1875 55.09375 -53.09375 C 57.113281 -51.007812 59.585938 -49.96875 62.515625 -49.96875 L 69.828125 -49.96875 L 69.828125 0 L 62.515625 0 C 54.148438 0 46.304688 -1.566406 38.984375 -4.703125 C 31.671875 -7.835938 25.257812 -12.191406 19.75 -17.765625 C 14.25 -23.347656 9.929688 -29.757812 6.796875 -37 C 3.660156 -44.25 2.09375 -52.054688 2.09375 -60.421875 C 2.09375 -68.785156 3.660156 -76.625 6.796875 -83.9375 C 9.929688 -91.257812 14.25 -97.671875 19.75 -103.171875 C 25.257812 -108.679688 31.671875 -113.003906 38.984375 -116.140625 C 46.304688 -119.273438 54.148438 -120.84375 62.515625 -120.84375 Z M 62.515625 -120.84375 "/></g></g></g></svg>