<svg xmlns="http://www.w3.org/2000/svg" xmlns:xlink="http://www.w3.org/1999/xlink" width="500" zoomAndPan="magnify" viewBox="0 0 375 374.999991" height="500" preserveAspectRatio="xMidYMid meet" version="1.0"><defs><g/><clipPath id="de404fda9b"><path d="M 209 109 L 251 109 L 251 279.378906 L 209 279.378906 Z M 209 109 " clip-rule="nonzero"/></clipPath><clipPath id="21207c83a3"><path d="M 250 109 L 292 109 L 292 279.378906 L 250 279.378906 Z M 250 109 " clip-rule="nonzero"/></clipPath><clipPath id="563edef090"><path d="M 116.410156 191 L 158 191 L 158 279.378906 L 116.410156 279.378906 Z M 116.410156 191 " clip-rule="nonzero"/></clipPath><clipPath id="c2e668ac83"><path d="M 157 191 L 199 191 L 199 279.378906 L 157 279.378906 Z M 157 191 " clip-rule="nonzero"/></clipPath><clipPath id="2d0866ffa2"><path d="M 209 92.347656 L 292 92.347656 L 292 128 L 209 128 Z M 209 92.347656 " clip-rule="nonzero"/></clipPath><clipPath id="3a7010d0d1"><path d="M 116.410156 174 L 199 174 L 199 210 L 116.410156 210 Z M 116.410156 174 " clip-rule="nonzero"/></clipPath><clipPath id="6758eb9334"><path d="M 67 97 L 313 97 L 313 169 L 67 169 Z M 67 97 " clip-rule="nonzero"/></clipPath><clipPath id="607055753e"><path d="M 93.753906 47.019531 L 312.507812 97.207031 L 285.117188 216.609375 L 66.363281 166.421875 Z M 93.753906 47.019531 " clip-rule="nonzero"/></clipPath><clipPath id="54c2edd8dd"><path d="M 93.753906 47.019531 L 312.507812 97.207031 L 285.117188 216.609375 L 66.363281 166.421875 Z M 93.753906 47.019531 " clip-rule="nonzero"/></clipPath><clipPath id="d46812a40e"><path d="M 71 81 L 316 81 L 316 153 L 71 153 Z M 71 81 " clip-rule="nonzero"/></clipPath><clipPath id="8edcf29994"><path d="M 97.382812 31.207031 L 316.136719 81.390625 L 288.742188 200.796875 L 69.988281 150.609375 Z M 97.382812 31.207031 " clip-rule="nonzero"/></clipPath><clipPath id="e88ad2e58f"><path d="M 97.382812 31.207031 L 316.136719 81.390625 L 288.742188 200.796875 L 69.988281 150.609375 Z M 97.382812 31.207031 " clip-rule="nonzero"/></clipPath><clipPath id="1056c9a5c6"><path d="M 69 89 L 314 89 L 314 161 L 69 161 Z M 69 89 " clip-rule="nonzero"/></clipPath><clipPath id="56574a2191"><path d="M 95.46875 39.546875 L 314.222656 89.734375 L 286.832031 209.136719 L 68.078125 158.949219 Z M 95.46875 39.546875 " clip-rule="nonzero"/></clipPath><clipPath id="2f1c00e76e"><path d="M 95.46875 39.546875 L 314.222656 89.734375 L 286.832031 209.136719 L 68.078125 158.949219 Z M 95.46875 39.546875 " clip-rule="nonzero"/></clipPath></defs><g clip-path="url(#de404fda9b)"><path fill="#ec4899" d="M 250.839844 279.378906 L 209.925781 261.84375 L 209.925781 109.882812 L 250.839844 127.414062 Z M 250.839844 279.378906 " fill-opacity="1" fill-rule="nonzero"/></g><g clip-path="url(#21207c83a3)"><path fill="#f577b5" d="M 291.75 261.84375 L 250.839844 279.378906 L 250.839844 127.414062 L 291.75 109.882812 Z M 291.75 261.84375 " fill-opacity="1" fill-rule="nonzero"/></g><g clip-path="url(#563edef090)"><path fill="#ec4899" d="M 157.324219 279.378906 L 116.410156 261.84375 L 116.410156 191.707031 L 157.324219 209.242188 Z M 157.324219 279.378906 " fill-opacity="1" fill-rule="nonzero"/></g><g clip-path="url(#c2e668ac83)"><path fill="#f577b5" d="M 198.238281 261.84375 L 157.324219 279.378906 L 157.324219 209.242188 L 198.238281 191.707031 Z M 198.238281 261.84375 " fill-opacity="1" fill-rule="nonzero"/></g><g clip-path="url(#2d0866ffa2)"><path fill="#fc9aca" d="M 250.839844 92.347656 L 209.925781 109.871094 L 250.839844 127.40625 L 291.75 109.871094 Z M 250.839844 92.347656 " fill-opacity="1" fill-rule="nonzero"/></g><g clip-path="url(#3a7010d0d1)"><path fill="#fc9aca" d="M 157.324219 174.171875 L 116.410156 191.695312 L 157.324219 209.230469 L 198.238281 191.695312 Z M 157.324219 174.171875 " fill-opacity="1" fill-rule="nonzero"/></g><g clip-path="url(#6758eb9334)"><g clip-path="url(#607055753e)"><g clip-path="url(#54c2edd8dd)"><path fill="#fff9f9" d="M 312.277344 97.152344 L 296.640625 126.664062 L 290.132812 116.28125 L 242.519531 146.128906 L 234.984375 150.851562 L 230.261719 143.316406 L 218.621094 124.746094 L 175.054688 152.050781 L 170.335938 144.523438 L 164.386719 135.03125 L 137.578125 151.832031 L 130.042969 156.554688 L 119.082031 139.0625 L 72.589844 168.199219 L 67.867188 160.664062 L 114.359375 131.527344 L 121.894531 126.804688 L 126.617188 134.339844 L 132.859375 144.300781 L 159.664062 127.496094 L 167.199219 122.773438 L 171.921875 130.308594 L 177.871094 139.800781 L 221.4375 112.492188 L 226.15625 120.023438 L 237.796875 138.59375 L 285.410156 108.746094 L 278.902344 98.363281 Z M 312.277344 97.152344 " fill-opacity="1" fill-rule="nonzero"/></g></g></g><g clip-path="url(#d46812a40e)"><g clip-path="url(#8edcf29994)"><g clip-path="url(#e88ad2e58f)"><path fill="#fff9f9" d="M 315.90625 81.339844 L 300.265625 110.851562 L 293.757812 100.46875 L 246.144531 130.316406 L 238.609375 135.039062 L 233.886719 127.503906 L 222.246094 108.933594 L 178.683594 136.238281 L 173.960938 128.710938 L 168.015625 119.21875 L 141.207031 136.019531 L 133.671875 140.742188 L 122.707031 123.25 L 76.214844 152.386719 L 71.492188 144.851562 L 117.984375 115.714844 L 125.519531 110.992188 L 130.242188 118.527344 L 136.488281 128.488281 L 163.292969 111.683594 L 170.828125 106.960938 L 175.550781 114.496094 L 181.496094 123.988281 L 225.0625 96.679688 L 229.78125 104.207031 L 241.421875 122.78125 L 289.035156 92.933594 L 282.527344 82.550781 Z M 315.90625 81.339844 " fill-opacity="1" fill-rule="nonzero"/></g></g></g><g clip-path="url(#1056c9a5c6)"><g clip-path="url(#56574a2191)"><g clip-path="url(#2f1c00e76e)"><path fill="#ec4899" d="M 313.992188 89.679688 L 298.351562 119.191406 L 291.84375 108.808594 L 244.234375 138.65625 L 236.699219 143.378906 L 231.976562 135.84375 L 220.335938 117.273438 L 176.769531 144.578125 L 172.050781 137.050781 L 166.101562 127.558594 L 139.292969 144.359375 L 131.757812 149.082031 L 120.792969 131.589844 L 74.300781 160.726562 L 69.578125 153.191406 L 116.070312 124.054688 L 123.605469 119.332031 L 128.328125 126.867188 L 134.574219 136.828125 L 161.378906 120.023438 L 168.914062 115.300781 L 173.636719 122.835938 L 179.585938 132.328125 L 223.148438 105.019531 L 227.871094 112.550781 L 239.507812 131.121094 L 287.121094 101.273438 L 280.613281 90.890625 Z M 313.992188 89.679688 " fill-opacity="1" fill-rule="nonzero"/></g></g></g><g fill="#ec4899" fill-opacity="1"><g transform="translate(9.170781, 262.93489)"><g><path d="M 62.109375 0 C 50.390625 0 40 -2.164062 30.9375 -6.5 C 21.882812 -10.84375 14.804688 -17.351562 9.703125 -26.03125 C 4.609375 -34.707031 2.0625 -45.59375 2.0625 -58.6875 L 2.0625 -160.0625 L 58.234375 -160.0625 L 58.234375 -128.09375 L 97.28125 -128.09375 L 97.28125 -75.125 L 58.234375 -75.125 L 58.234375 -56.171875 C 58.234375 -54.191406 59.222656 -53.203125 61.203125 -53.203125 L 97.28125 -53.203125 L 97.28125 0 Z M 62.109375 0 "/></g></g></g><path stroke-linecap="butt" transform="matrix(1.469197, 0.000000000000000065, -0.000000000000000065, 1.469197, 65.887486, 29.543604)" fill="none" stroke-linejoin="miter" d="M 55.394836 55.42949 C 60.124778 55.42949 64.548963 56.317517 68.662071 58.093572 C 72.77518 59.869627 76.417687 62.323666 79.584276 65.453032 C 82.750864 68.561128 85.223515 72.193 86.99957 76.34599 C 88.775625 80.496322 89.666311 84.949752 89.666311 89.700964 L 89.666311 123.999027 L 61.188284 123.999027 L 61.188284 89.700964 C 61.188284 88.116341 60.619309 86.736442 59.478699 85.555951 C 58.340747 84.359507 56.976801 83.761285 55.394836 83.761285 C 53.733109 83.761285 52.323963 84.359507 51.164742 85.555951 C 50.024132 86.736442 49.455156 88.116341 49.455156 89.700964 C 49.455156 91.282929 50.024132 92.673463 51.164742 93.872566 C 52.323963 95.050399 53.733109 95.637986 55.394836 95.637986 L 59.537191 95.637986 L 59.537191 123.999027 L 55.394836 123.999027 C 50.643624 123.999027 46.190194 123.110999 42.039862 121.334944 C 37.886872 119.55889 34.247023 117.086239 31.117658 113.91965 C 27.988292 110.750403 25.536911 107.110554 23.758198 102.997446 C 21.982143 98.884337 21.094115 94.452177 21.094115 89.700964 C 21.094115 84.949752 21.982143 80.496322 23.758198 76.34599 C 25.536911 72.193 27.988292 68.561128 31.117658 65.453032 C 34.247023 62.323666 37.886872 59.869627 42.039862 58.093572 C 46.190194 56.317517 50.643624 55.42949 55.394836 55.42949 Z M 55.394836 55.42949 " stroke="#fff9f9" stroke-width="8.900025" stroke-opacity="1" stroke-miterlimit="4"/><g fill="#ec4899" fill-opacity="1"><g transform="translate(95.133697, 211.724086)"><g><path d="M 52.125 -100.765625 C 59.09375 -100.765625 65.597656 -99.457031 71.640625 -96.84375 C 77.691406 -94.226562 83.039062 -90.625 87.6875 -86.03125 C 92.332031 -81.4375 95.960938 -76.085938 98.578125 -69.984375 C 101.191406 -63.890625 102.5 -57.351562 102.5 -50.375 L 102.5 0 L 60.671875 0 L 60.671875 -50.375 C 60.671875 -52.707031 59.828125 -54.742188 58.140625 -56.484375 C 56.453125 -58.222656 54.445312 -59.09375 52.125 -59.09375 C 49.6875 -59.09375 47.625 -58.222656 45.9375 -56.484375 C 44.25 -54.742188 43.40625 -52.707031 43.40625 -50.375 C 43.40625 -48.050781 44.25 -46.019531 45.9375 -44.28125 C 47.625 -42.539062 49.6875 -41.671875 52.125 -41.671875 L 58.21875 -41.671875 L 58.21875 0 L 52.125 0 C 45.15625 0 38.617188 -1.304688 32.515625 -3.921875 C 26.410156 -6.535156 21.0625 -10.164062 16.46875 -14.8125 C 11.882812 -19.46875 8.285156 -24.816406 5.671875 -30.859375 C 3.054688 -36.898438 1.75 -43.40625 1.75 -50.375 C 1.75 -57.351562 3.054688 -63.890625 5.671875 -69.984375 C 8.285156 -76.085938 11.882812 -81.4375 16.46875 -86.03125 C 21.0625 -90.625 26.410156 -94.226562 32.515625 -96.84375 C 38.617188 -99.457031 45.15625 -100.765625 52.125 -100.765625 Z M 52.125 -100.765625 "/></g></g></g><path stroke-linecap="butt" transform="matrix(1.469197, 0.000000000000000065, -0.000000000000000065, 1.469197, 239.964217, 94.999995)" fill="none" stroke-linejoin="miter" d="M 51.830382 55.429926 C 56.562983 55.429926 60.987167 56.317953 65.100276 58.094008 C 69.213384 59.870062 72.853233 62.324102 76.02248 65.453468 C 79.189069 68.561563 81.66172 72.193436 83.437774 76.343767 C 85.213829 80.496757 86.101856 84.947529 86.101856 89.698741 L 86.101856 123.999462 L 57.626489 123.999462 L 57.626489 89.698741 C 57.626489 88.116776 57.054854 86.734219 55.916903 85.556386 C 54.776293 84.359942 53.415006 83.76172 51.830382 83.76172 C 50.171313 83.76172 48.762168 84.359942 47.602946 85.556386 C 46.462336 86.734219 45.893361 88.116776 45.893361 89.698741 C 45.893361 91.283365 46.462336 92.673899 47.602946 93.870343 C 48.762168 95.050834 50.171313 95.638421 51.830382 95.638421 L 55.975396 95.638421 L 55.975396 123.999462 L 51.830382 123.999462 C 47.081829 123.999462 42.628398 123.111435 38.475408 121.33538 C 34.325077 119.556667 30.682569 117.086674 27.555862 113.917427 C 24.426496 110.750839 21.972457 107.11099 20.196402 102.997881 C 18.420347 98.882114 17.53232 94.449953 17.53232 89.698741 C 17.53232 84.947529 18.420347 80.496757 20.196402 76.343767 C 21.972457 72.193436 24.426496 68.561563 27.555862 65.453468 C 30.682569 62.324102 34.325077 59.870062 38.475408 58.094008 C 42.628398 56.317953 47.081829 55.429926 51.830382 55.429926 Z M 51.830382 55.429926 " stroke="#fff9f9" stroke-width="8.900025" stroke-opacity="1" stroke-miterlimit="4"/><g fill="#ec4899" fill-opacity="1"><g transform="translate(263.976412, 277.180478)"><g><path d="M 52.125 -100.765625 C 59.09375 -100.765625 65.597656 -99.457031 71.640625 -96.84375 C 77.691406 -94.226562 83.039062 -90.625 87.6875 -86.03125 C 92.332031 -81.4375 95.960938 -76.085938 98.578125 -69.984375 C 101.191406 -63.890625 102.5 -57.351562 102.5 -50.375 L 102.5 0 L 60.671875 0 L 60.671875 -50.375 C 60.671875 -52.707031 59.828125 -54.742188 58.140625 -56.484375 C 56.453125 -58.222656 54.445312 -59.09375 52.125 -59.09375 C 49.6875 -59.09375 47.625 -58.222656 45.9375 -56.484375 C 44.25 -54.742188 43.40625 -52.707031 43.40625 -50.375 C 43.40625 -48.050781 44.25 -46.019531 45.9375 -44.28125 C 47.625 -42.539062 49.6875 -41.671875 52.125 -41.671875 L 58.21875 -41.671875 L 58.21875 0 L 52.125 0 C 45.15625 0 38.617188 -1.304688 32.515625 -3.921875 C 26.410156 -6.535156 21.0625 -10.164062 16.46875 -14.8125 C 11.882812 -19.46875 8.285156 -24.816406 5.671875 -30.859375 C 3.054688 -36.898438 1.75 -43.40625 1.75 -50.375 C 1.75 -57.351562 3.054688 -63.890625 5.671875 -69.984375 C 8.285156 -76.085938 11.882812 -81.4375 16.46875 -86.03125 C 21.0625 -90.625 26.410156 -94.226562 32.515625 -96.84375 C 38.617188 -99.457031 45.15625 -100.765625 52.125 -100.765625 Z M 52.125 -100.765625 "/></g></g></g></svg>